<?xml version="1.0" standalone="no"?>
<!DOCTYPE svg PUBLIC "-//W3C//DTD SVG 20010904//EN"
 "http://www.w3.org/TR/2001/REC-SVG-20010904/DTD/svg10.dtd">
<svg version="1.0" xmlns="http://www.w3.org/2000/svg"
 width="952.000000pt" height="952.000000pt" viewBox="0 0 952.000000 952.000000"
 preserveAspectRatio="xMidYMid meet">
<metadata>
Created by potrace 1.14, written by Peter Selinger 2001-2017
</metadata>
<g transform="translate(0.000000,952.000000) scale(0.100000,-0.100000)"
fill="#000000" stroke="none">
<path d="M2211 9029 c-459 -41 -932 -235 -1306 -536 -119 -96 -306 -286 -391
-398 -291 -382 -456 -802 -504 -1284 -14 -142 -14 -3970 0 -4112 61 -608 315
-1136 749 -1551 377 -362 856 -588 1396 -660 81 -10 545 -13 2415 -13 2182 0
2322 1 2435 18 528 80 987 301 1356 655 434 415 688 943 749 1551 14 142 14
3970 0 4112 -58 578 -287 1077 -680 1483 -411 424 -957 686 -1535 735 -146 13
-4542 12 -4684 0z m-500 -1483 c261 -56 430 -302 390 -567 -31 -199 -170 -358
-365 -414 -81 -24 -229 -17 -308 14 -214 83 -355 323 -319 541 16 98 45 170
98 240 115 154 312 226 504 186z m3494 -1750 c171 -61 305 -205 369 -396 26
-79 56 -232 56 -287 0 -18 4 -33 8 -33 4 0 25 35 46 78 149 301 380 544 605
634 50 21 72 23 221 22 144 0 173 -3 223 -22 78 -29 187 -102 237 -160 55 -63
126 -209 150 -307 36 -150 40 -272 40 -1225 0 -1013 -1 -988 59 -1094 39 -69
77 -88 166 -83 86 5 140 31 206 98 131 134 229 364 310 723 43 192 72 247 151
287 71 36 142 14 233 -72 61 -57 100 -130 116 -213 9 -48 6 -64 -25 -168 -146
-480 -330 -800 -573 -997 -103 -83 -228 -151 -333 -181 -89 -26 -296 -38 -380
-22 -224 42 -418 203 -505 419 -61 152 -58 104 -65 1248 -6 1164 -3 1112 -71
1190 -25 29 -38 35 -69 35 -52 0 -84 -13 -144 -61 -223 -176 -474 -642 -569
-1054 -19 -85 -21 -130 -26 -850 l-6 -760 -28 -56 c-18 -38 -41 -66 -69 -85
-40 -28 -46 -29 -152 -28 -147 1 -207 23 -288 104 -95 96 -88 2 -88 1264 0
616 -5 1156 -10 1226 -12 149 -30 218 -71 265 -25 29 -38 35 -69 35 -54 0 -86
-14 -150 -67 -197 -162 -427 -562 -524 -910 -63 -227 -60 -182 -66 -998 -5
-734 -5 -751 -26 -795 -27 -58 -92 -117 -140 -126 -61 -11 -194 2 -258 26 -75
29 -146 94 -177 163 l-24 52 -5 1420 c-5 1300 -7 1425 -23 1475 -9 30 -17 69
-17 85 0 107 151 168 336 136 129 -23 247 -109 302 -220 26 -54 27 -63 32
-254 l5 -199 28 59 c91 187 210 356 338 479 120 115 219 178 332 209 74 21
313 15 382 -9z m-3724 -70 c37 -8 84 -23 106 -34 66 -34 139 -108 172 -174
l31 -61 0 -1071 c1 -589 5 -1116 10 -1172 11 -119 38 -198 85 -247 40 -41 81
-52 160 -44 75 8 123 36 199 118 121 131 219 365 297 712 16 73 39 151 50 174
41 86 130 134 207 113 121 -32 245 -203 244 -335 0 -86 -122 -436 -221 -637
-184 -370 -466 -619 -773 -682 -87 -18 -249 -21 -327 -6 -214 40 -407 201
-492 410 -66 164 -62 77 -69 1450 -4 943 -8 1253 -18 1280 -6 19 -12 54 -12
77 0 112 158 169 351 129z"/>
</g>
</svg>
