<svg width="191" height="177" viewBox="0 0 191 177" fill="none" xmlns="http://www.w3.org/2000/svg">
<path d="M145 90C145 90 203.803 108.178 187 158.5L152.345 153.92L145 90Z" fill="#B24BF5"/>
<path opacity="0.44" d="M145 90C145 90 203.803 108.178 187 158.5L152.345 153.92L145 90Z" fill="white"/>
<path d="M104.923 75.293L121.424 79.8114C120.524 84.7905 214.146 95.7576 174.5 166.042L37.0001 165.5C44.4322 177.272 -29.6775 88.8044 104.923 75.293Z" fill="url(#paint0_linear_203_38)"/>
<path d="M112.666 28.2109L103.883 75.6397L132.049 92.8581L126.125 42.9003L112.666 28.2109Z" fill="#F4A28C"/>
<path opacity="0.31" d="M127.441 50.7647C124.155 49.8473 121.21 47.9863 118.971 45.4121C118.971 45.4121 119.127 54.2465 128.585 63.2022L127.441 50.7647Z" fill="#CE8172"/>
<path opacity="0.14" d="M39.9774 165.587L59.3209 166C65.1461 157.97 55.2799 117.226 37.9934 97C34.0835 98.5219 26.5857 101.958 26.5857 101.958C22.6335 104.85 39.9774 165.587 39.9774 165.587Z" fill="black"/>
<path d="M187.301 158.165C187.301 158.165 165.048 149.488 159.827 161.364C154.606 173.24 175.476 183.588 187.301 158.165Z" fill="#F4A28C"/>
<path d="M4.92699 80.1536C4.55435 72.0253 3.17358 63.9748 0.81635 56.1869C-2.91665 44.7119 7.30914 48.7935 8.26781 55.8528C9.22648 62.9121 18.9439 49.1131 23.621 59.4551C28.2982 69.7971 18.8277 76.6385 18.8277 76.6385L4.92699 80.1536Z" fill="#F4A28C"/>
<path d="M3.63403 79.2682C3.63403 79.2682 15.0729 169.419 38.662 166.514C77.1394 161.72 19.6845 78.1934 19.6845 78.1934L3.63403 79.2682Z" fill="#F4A28C"/>
<path d="M21.4697 74.2746L2.09058 75.9258L2.65781 82.5833L22.037 80.9321L21.4697 74.2746Z" fill="#24285B"/>
<path d="M134.197 24.7803C134.197 24.7803 137.09 39.2272 135.722 49.1876C135.463 51.1269 134.446 52.8847 132.894 54.0762C131.343 55.2677 129.382 55.7958 127.442 55.5449C122.435 54.7827 115.87 52.3056 113.376 44.753L107.573 32.4715C107.573 32.4715 104.212 24.6417 111.799 17.7821C119.387 10.9224 132.863 15.9632 134.197 24.7803Z" fill="#F4A28C"/>
<path d="M135.548 34.0312L140.26 39.228C140.53 39.5201 140.72 39.8762 140.814 40.2625C140.907 40.6487 140.901 41.0525 140.795 41.4357C140.69 41.8188 140.488 42.1687 140.209 42.4522C139.931 42.7358 139.585 42.9436 139.203 43.0562L133.73 44.7885L135.548 34.0312Z" fill="#F4A28C"/>
<path d="M107.937 47.6985L102.93 28.2454C102.93 28.2454 91.7748 26.288 95.1527 19.0126C98.5305 11.7372 102.982 16.5875 103.19 8.22075C103.398 -0.14597 110.119 -1.82624 115.004 2.90277C119.889 7.63179 117.585 1.04928 123.665 0.165837C129.746 -0.717606 131.27 2.00201 131.391 6.57513C131.512 11.1482 140.208 6.29796 142.408 12.0836C144.608 17.8693 144.92 23.4818 129.953 24.3652C114.987 25.2487 125.588 37.6688 107.937 47.6985Z" fill="#584903"/>
<path d="M120.045 39.1065C120.045 39.1065 119.317 33.494 115.125 34.3948C110.933 35.2955 111.973 43.4197 117.81 43.541L120.045 39.1065Z" fill="#F4A28C"/>
<defs>
<linearGradient id="paint0_linear_203_38" x1="29.5" y1="90.5" x2="204" y2="166" gradientUnits="userSpaceOnUse">
<stop stop-color="#FF2F74"/>
<stop offset="1" stop-color="#C46AFF"/>
</linearGradient>
</defs>
</svg>
